<svg xmlns="http://www.w3.org/2000/svg" viewBox="0 0 100 100"><defs><style>.cls-1{fill:none;opacity:0.2;}.cls-2{fill:#fff;}</style></defs><title>08_r</title><g id="Layer_2" data-name="Layer 2"><g id="Layer_1-2" data-name="Layer 1"><g id="_08_r" data-name="08_r"><rect class="cls-1" width="100" height="100"/><path class="cls-2" d="M20.15,81.1h.68c5.65,0,6.33-3.62,6.33-11.08V30c0-7.47-.45-11.09-6.33-11.09h-.68V18H47.06c6.33,0,11.31,0,15.83,2,5.65,2.48,9,7.23,9,12.66,0,9-8.14,14.47-23.07,14.7a32.72,32.72,0,0,1,14.47,5.43c3.62,2.49,5,6.78,6.56,13.57,2.71,9.95,2.26,14.47,9,14.47h.9v.91H58.14L54.52,61.42C52.71,51.24,48.87,47.63,43,47.63H41.41V72.5c0,5.88,1.58,8.6,6.1,8.6h.91V82H20.15ZM42.76,46.72c10.18,0,14.48-4.07,14.48-14,0-10.4-3.4-13.8-13.12-13.8H41.41V46.5A2.91,2.91,0,0,0,42.76,46.72Z"/></g></g></g></svg>