<svg xmlns="http://www.w3.org/2000/svg" viewBox="0 0 100 100"><defs><style>.cls-1{fill:none;opacity:0.2;}.cls-2{fill:#fff;}</style></defs><title>07_u</title><g id="Layer_2" data-name="Layer 2"><g id="Layer_1-2" data-name="Layer 1"><g id="_07_u" data-name="07_u"><rect class="cls-1" width="100" height="100"/><path class="cls-2" d="M42.31,72.73c2.26,5.43,6.33,8.14,11.53,8.14a13.85,13.85,0,0,0,12.9-7.69c1.8-3.62,2-8.14,2-13.34V39.94c0-13.8-1.81-20.58-11.31-20.81v-.9h23.3v.9c-9.5,0-11.08,7.24-11.08,20.81v20.8c0,5.88-.23,10.18-2.94,14.25-3.62,5.2-9.5,8.14-17.19,8.14-8.82,0-15.38-2.94-19.45-8.37C26.48,70,26.25,64.59,26.25,57.12V30c0-7.47-.45-11.09-6.33-11.09h-.68V18H47.51v.9h-.68C41,18.9,40.5,22.52,40.5,30V58.71C40.73,64.81,41,69.56,42.31,72.73Z"/></g></g></g></svg>