<svg xmlns="http://www.w3.org/2000/svg" viewBox="0 0 954.355 170.681"><defs><style>.a{fill:#fff;}</style></defs><title>citycenterdc</title><path class="a" d="M124.431,171.672a87.019,87.019,0,0,0,54.732,27.8v1.182H30.786v-1.2A87.029,87.029,0,0,0,85.6,171.335a62.551,62.551,0,0,0,38.828.337M104.8,154.453a41.5,41.5,0,0,1-7.032-.6,84.929,84.929,0,0,1-8.973,13.736,57.758,57.758,0,0,0,32.381.288,84.635,84.635,0,0,1-9.23-14.069,40.755,40.755,0,0,1-7.146.65M189.127,35.694a82.625,82.625,0,0,0-59.045,24.555,60.606,60.606,0,0,1,32.153,32.167l-4.283,1.812a56.058,56.058,0,0,0-31.165-30.441,80.468,80.468,0,0,0-9.558,13.5,40.286,40.286,0,0,1,25.121,22.957L138.033,102a35.54,35.54,0,0,0-22.987-20.515,78.168,78.168,0,0,0-.616,66.945,36.353,36.353,0,0,0,23.712-20.768l4.178,1.91a40.72,40.72,0,0,1-25.756,23.136,79.787,79.787,0,0,0,9.266,13.647,56.061,56.061,0,0,0,32.2-30.957l4.233,1.911c-.03.074-.055.139-.084.208a60.669,60.669,0,0,1-33.091,32.456,82.644,82.644,0,0,0,60.037,25.567c.958,0,1.911-.015,2.859-.05l.005-42.107L192,35.739c-.953-.025-1.911-.045-2.874-.045M99.919,149.409a36.841,36.841,0,0,0,4.883.362,35.654,35.654,0,0,0,5.012-.367,82.234,82.234,0,0,1-4.947-14.555,81.568,81.568,0,0,1-4.948,14.56M84.61,58.79a62.5,62.5,0,0,1,40.822-.318,87.115,87.115,0,0,1,53.73-26.708V30.582H30.785v1.206a87.081,87.081,0,0,1,53.825,27M20.617,195.546a82.625,82.625,0,0,0,60.405-25.954C59.434,160.376,44.348,139.36,44.348,114.9c0-24.089,14.63-44.827,35.691-54.261A82.6,82.6,0,0,0,20.617,35.7c-.973,0-1.94.02-2.9.05V195.5c.963.035,1.93.05,2.9.05M64.265,114.9c0-17.647,11.846-32.584,28.2-37.676A80.392,80.392,0,0,0,83.3,64.183C63.139,72.61,49.01,92.142,49.01,114.9c0,23.1,14.56,42.862,35.205,51.075a79.8,79.8,0,0,0,8.917-13.2c-16.7-4.888-28.867-19.994-28.867-37.884M104.8,75.348a40.787,40.787,0,0,1,7.835.784,84.591,84.591,0,0,1,9.5-13.95,57.891,57.891,0,0,0-34.262.327,85.1,85.1,0,0,1,9.2,13.563,41.7,41.7,0,0,1,7.727-.724M99.29,80.473a82.01,82.01,0,0,1,5.578,15.92,82.511,82.511,0,0,1,5.583-15.939,37.214,37.214,0,0,0-5.652-.437,36.656,36.656,0,0,0-5.509.456M69.056,114.9c0,16.044,11.111,29.522,26.227,33.587a78.186,78.186,0,0,0-.6-67.03A35.013,35.013,0,0,0,69.056,114.9M192.03,46.947v0Zm86.55,70.781c8.045,0,13.444-3.787,17.389-6.556,2.01-1.4,3.6-2.516,4.784-2.516,2.655,0,3.846,3.275,3.846,5.608v.2h2.327V86.483H304.6V86.7c0,13.881-10.461,28.754-26.019,28.754-19.731,0-23.875-22.153-23.875-40.738s4.144-40.733,23.875-40.733c13.856,0,26.019,12.292,26.019,26.312v.2h2.327V35.2H304.6v.2c0,3.181-1.419,4.794-4.2,4.794-1.593,0-3.33-1.171-5.534-2.66-3.642-2.461-8.63-5.831-16.282-5.831-20.535,0-37.884,19.7-37.884,43.011s17.349,43.016,37.884,43.016m70.685-4.431h-10.64V59.016l-.357.352c-2.645,2.586-6.9,2.8-11.027,2.8H316.393v2.487h10.639V113.3H316.393v2.481h32.872Zm27.721,4.04c11.513,0,14.525-8.982,14.838-10.01l.065-.213-2.4-.466-.06.168c-.486,1.34-3.265,8.035-10.183,8.035-4.476,0-6.3-1.97-6.3-6.8V44h-1.985l-.029.174c-2.387,13.433-8,18.252-20.938,18l-.213-.005v2.491h11.568v40.932c0,7.91,5.116,11.751,15.642,11.751m24.836,33.485c9.414,0,11.895-8.288,17.1-28.709.466-1.831,3.3-9.146,7.573-19.567L438.332,73.48l.178-.437c2.923-6.948,3.529-8.392,11.727-8.392h.208V62.165H424.089v2.486h5.667c5.533,0,7.5.829,7.5,3.166,0,1.489-.6,3.31-1.712,6.159L423.23,104.521,406,64.651h9.469V62.165h-42.52v2.486h19.692l24.54,55.025c-.149.581-.357,1.509-.62,2.68-1.449,6.387-5.31,23.379-9.146,23.379-.427,0-.859-.129-.859-1.092a6.667,6.667,0,0,1,.065-.838,11.86,11.86,0,0,0,.074-1.236,5.493,5.493,0,0,0-5.8-5.136,6.235,6.235,0,0,0-6.6,6.431c0,4.228,2.958,6.958,7.529,6.958m92.651-33.177c8.034,0,13.439-3.786,17.379-6.545,2.015-1.41,3.6-2.526,4.794-2.526,2.65,0,3.846,3.28,3.846,5.607v.2h2.322V86.4h-2.322v.208c0,13.89-10.461,28.758-26.019,28.758-19.731,0-23.875-22.153-23.875-40.733S474.742,33.9,494.473,33.9c13.855,0,26.019,12.3,26.019,26.312v.209h2.322v-25.3h-2.322v.209c0,3.181-1.42,4.789-4.2,4.789-1.593,0-3.329-1.172-5.528-2.66-3.642-2.457-8.635-5.831-16.287-5.831-20.54,0-37.89,19.7-37.89,43.015s17.35,43.011,37.89,43.011m52.134-40.092c0-7.186,2.065-15.756,11.9-15.756,7.186,0,10.823,5.3,10.823,15.756v2.724a.624.624,0,0,1-.714.7h-22ZM560.1,117.338c12.163,0,21.438-7.91,23.622-20.148l.039-.248H581.2l-.03.173c-1.881,10.779-10.154,17.737-21.071,17.737-3.975,0-7.092-1.087-9.265-3.236-3.9-3.851-4.3-10.655-4.224-16.158V83.468h34.5a1.243,1.243,0,0,0,1.41-1.369c0-5.861-8.258-22.789-24.019-22.789-14.129,0-25.081,15.6-25.081,29.017,0,17.081,10.967,29.011,26.674,29.011m99.967-4.041H649.548V74.182c0-6.779-3.2-14.873-18.427-14.873-11.151,0-17.532,8.982-19.875,13.116V58.937l-.377.446c-2.327,2.784-4.69,2.784-11.012,2.784H589.143v2.487h10.511V113.3H589.143v2.481H621.36V113.3H611.246l-.02-36.3.119-.224C613.777,72.3,619.459,61.8,630.322,61.8c3.474,0,7.638,1.6,7.638,9.265V113.3H627.449v2.481h32.614Zm27.183,4.04c11.513,0,14.53-8.982,14.838-10.01l.065-.213-2.407-.466-.06.168c-.481,1.34-3.255,8.035-10.173,8.035-4.477,0-6.308-1.97-6.308-6.8v-43.4h18.357V62.168H683.2V44h-1.98l-.034.174c-2.4,13.433-8.02,18.237-20.933,18l-.213-.005v2.491h11.568v40.932c0,7.91,5.111,11.751,15.637,11.751m31.815-39.784c0-7.186,2.069-15.756,11.895-15.756,7.181,0,10.829,5.3,10.829,15.756v2.724a.626.626,0,0,1-.72.7h-22Zm13.493,39.785c12.164,0,21.434-7.91,23.612-20.148l.045-.248H753.65l-.024.173c-1.881,10.779-10.154,17.737-21.072,17.737-3.98,0-7.1-1.087-9.265-3.236-3.895-3.856-4.307-10.655-4.228-16.158V83.468h34.5A1.239,1.239,0,0,0,754.97,82.1c0-5.861-8.252-22.789-24.014-22.789-14.123,0-25.081,15.6-25.081,29.017,0,17.081,10.968,29.011,26.679,29.011M797.32,113.3H785.211V86.9c0-16.714,9.678-25.1,15.092-25.1a3.69,3.69,0,0,1,1.449.184,6.519,6.519,0,0,0-2.725,5.578c0,4.039,1.926,5.915,6.065,5.915a5.978,5.978,0,0,0,6.327-6.307c0-4.551-3.782-7.861-8.992-7.861-11.429,0-15.771,10.059-17.216,14.942V59.016l-.357.352c-2.64,2.586-6.893,2.8-11.027,2.8H762.448v2.487h11.176V113.3H762.448v2.481H797.32Zm42.231-77.54h5.627c31.23,0,34.843,22.188,34.843,38.877,0,32.133-16.545,38.872-30.426,38.872H839.551Zm13.736,80.022c24.754,0,40.753-16.148,40.753-41.145,0-15.284-8.61-41.149-40.872-41.149H815.646v2.272h11.325v77.749H815.646v2.273h37.641m86.92,1.866c8.044,0,13.448-3.786,17.389-6.545,2.014-1.41,3.6-2.526,4.794-2.526,2.65,0,3.831,3.28,3.831,5.607v.2h2.337V86.4h-2.337v.208c0,13.89-10.452,28.758-26.014,28.758-19.727,0-23.87-22.153-23.87-40.733S920.48,33.9,940.207,33.9c13.86,0,26.014,12.3,26.014,26.312v.209h2.337v-25.3h-2.337v.209c0,3.181-1.4,4.789-4.2,4.789-1.588,0-3.325-1.172-5.523-2.66-3.643-2.457-8.63-5.831-16.292-5.831-20.531,0-37.88,19.7-37.88,43.015s17.349,43.011,37.88,43.011M332.989,42.939a6.436,6.436,0,1,0,5.97,6.426,6.231,6.231,0,0,0-5.97-6.426M413.374,195.2a3.032,3.032,0,1,0,3.033,3.032,3.035,3.035,0,0,0-3.033-3.032m177.01,0a3.032,3.032,0,1,0,3.032,3.032,3.035,3.035,0,0,0-3.032-3.032m294-20.734v1.043h3.215v15.131l-11.319-16.174H867.59v1.043h3.226v23.418H867.59v1.042h7.558v-1.042h-3.231V177.989l15.345,21.87.084.109h1.36v-24.46h3.226v-1.043Zm-390.035,0v1.043h3.226v23.418h-3.226v1.042h12.074v-1.042H503.2V175.508h3.221v-1.043Zm42.739,0v1.043h3.23v15.145l-8.65-12.361-2.6-3.712-.084-.115h-8.69v1.043h3.226v23.418h-3.226v1.042h7.558v-1.042h-3.221V178l15.335,21.86.084.109h1.365v-24.46h3.226v-1.043ZM366.1,191.71a11.794,11.794,0,0,1-1.245,3.379,8.951,8.951,0,0,1-1.8,2.244,6.238,6.238,0,0,1-2.114,1.225,7.215,7.215,0,0,1-2.243.368H353.19V175.5h3.22v-1.037H344.336V175.5h3.226v23.424h-3.226v1.042H367.1V191.5h-.943Zm-93.888-10.286h.933l.055-.194a14.807,14.807,0,0,1,1.136-2.888,5.648,5.648,0,0,1,1.365-1.727,4.514,4.514,0,0,1,1.722-.853,8.988,8.988,0,0,1,2.248-.258h.987v23.423h-3.23v1.042h12.079v-1.042h-3.226V175.5h.988a9.022,9.022,0,0,1,2.248.258,4.593,4.593,0,0,1,1.722.853,5.815,5.815,0,0,1,1.364,1.727,14.576,14.576,0,0,1,1.132,2.888l.059.194h.933v-6.958H272.214Zm-12.964,5.088a9.548,9.548,0,0,0-2.471-1.424c-.928-.377-1.866-.715-2.784-1s-1.821-.585-2.7-.858l-.074-.02a12.78,12.78,0,0,1-2.347-.983,5.344,5.344,0,0,1-1.623-1.315,2.859,2.859,0,0,1-.586-1.861,3.229,3.229,0,0,1,.353-1.454,4.33,4.33,0,0,1,1.057-1.315,5.452,5.452,0,0,1,1.722-.962,6.819,6.819,0,0,1,2.377-.378,5.716,5.716,0,0,1,2.709.566,5.494,5.494,0,0,1,1.772,1.484,8.724,8.724,0,0,1,1.166,2.089c.3.764.6,1.553.893,2.412l.065.179h.923v-7.2h-1.017l-.075.169a1.766,1.766,0,0,1-.263.486s-.089.074-.461.074a2.178,2.178,0,0,1-.819-.183c-.343-.144-.745-.293-1.2-.447-.417-.144-.913-.283-1.563-.446a9,9,0,0,0-2.1-.214,9.417,9.417,0,0,0-3.478.63,9.033,9.033,0,0,0-2.765,1.663,7.645,7.645,0,0,0-1.816,2.377,6.38,6.38,0,0,0-.66,2.819,7.476,7.476,0,0,0,.64,3.275,6.745,6.745,0,0,0,1.7,2.208,9.08,9.08,0,0,0,2.383,1.449,26.256,26.256,0,0,0,2.689.953c.7.2,1.37.4,2.035.6l.635.188a11.57,11.57,0,0,1,2.253.928,4.61,4.61,0,0,1,1.544,1.32,3.292,3.292,0,0,1,.56,1.975,5.505,5.505,0,0,1-.268,1.554,4.977,4.977,0,0,1-.913,1.672,5.285,5.285,0,0,1-1.786,1.35,6.742,6.742,0,0,1-2.933.551c-.348,0-.72,0-1.127-.02a5.252,5.252,0,0,1-1.23-.2,6.366,6.366,0,0,1-1.38-.59,7.153,7.153,0,0,1-1.5-1.186,7.611,7.611,0,0,1-1.2-1.469,12.453,12.453,0,0,1-.819-1.578,9.734,9.734,0,0,1-.5-1.429c-.124-.467-.2-.824-.238-1.077l-.035-.234h-1.037v8.328h1.027l.06-.179a1.231,1.231,0,0,1,.3-.531.965.965,0,0,1,.536-.094,3.821,3.821,0,0,1,.982.193c.516.159,1.1.308,1.668.442s1.2.283,2.009.442a11.9,11.9,0,0,0,6.248-.482,10.225,10.225,0,0,0,3.132-1.89,8.55,8.55,0,0,0,2.049-2.794,8.108,8.108,0,0,0,.725-3.37,6.361,6.361,0,0,0-.685-3.077,6.947,6.947,0,0,0-1.767-2.114m318.755,5.442a12.212,12.212,0,0,1-.988,2.759,8.638,8.638,0,0,1-1.618,2.228,7.058,7.058,0,0,1-2.2,1.464,7.263,7.263,0,0,1-2.814.521h-5.469v-12.1h2.08a4.209,4.209,0,0,1,1.92.392,3.792,3.792,0,0,1,1.295,1.067,5.5,5.5,0,0,1,.854,1.588c.208.6.4,1.231.571,1.931l.049.208h.943V180.564h-.948l-.049.219a12.26,12.26,0,0,1-.621,2.1,5.269,5.269,0,0,1-.933,1.573,3.618,3.618,0,0,1-1.389.978,5.533,5.533,0,0,1-2.084.347h-1.688V175.5h5.295a5.785,5.785,0,0,1,2.784.615,6.688,6.688,0,0,1,1.866,1.459,7.388,7.388,0,0,1,1.132,1.742,12.993,12.993,0,0,1,.585,1.489l.055.193h.933v-6.536h-21.5V175.5h3.226v23.423H556.06v1.042h22.947V191.74h-.953ZM332.743,174.465H325.5v1.043h2.869l-6,11.384-6.66-11.384h2.576v-1.043H306.441v1.043h2.849l8.019,13.989v9.429h-3.226v1.042H326.2v-1.042h-3.26V188.152l6.655-12.644h3.156v-1.043Zm67.569,17.489a11.928,11.928,0,0,1-.988,2.759,8.612,8.612,0,0,1-1.617,2.228,7.074,7.074,0,0,1-2.2,1.464,7.242,7.242,0,0,1-2.814.521h-5.468v-12.1H389.3a4.209,4.209,0,0,1,1.92.392,3.943,3.943,0,0,1,1.3,1.067,5.4,5.4,0,0,1,.848,1.588c.224.636.417,1.286.576,1.931l.05.208h.942V180.564h-.947l-.045.219a12.717,12.717,0,0,1-.625,2.1,5.187,5.187,0,0,1-.933,1.573,3.611,3.611,0,0,1-1.385.978,5.459,5.459,0,0,1-2.089.347h-1.687V175.5h5.3a5.818,5.818,0,0,1,2.784.615,6.7,6.7,0,0,1,1.866,1.459,7.721,7.721,0,0,1,1.131,1.742,13.036,13.036,0,0,1,.586,1.489l.054.193h.933v-6.536h-21.5V175.5H381.6v23.423h-3.231v1.042h22.947V191.74h-.952Zm521.856.248a12,12,0,0,1-.968,2.71,9.411,9.411,0,0,1-1.593,2.3,7.744,7.744,0,0,1-2.183,1.607,6.18,6.18,0,0,1-2.739.606,8.843,8.843,0,0,1-3.276-.546,4.551,4.551,0,0,1-2.188-1.856,10.241,10.241,0,0,1-1.276-3.682,36.323,36.323,0,0,1-.416-5.985c0-1.846.074-3.553.213-5.072a12.19,12.19,0,0,1,.938-3.925,5.627,5.627,0,0,1,2.124-2.511,7.157,7.157,0,0,1,3.881-.9,6.445,6.445,0,0,1,3.042.65,6.668,6.668,0,0,1,2.054,1.683,9.864,9.864,0,0,1,1.365,2.288c.347.813.655,1.627.918,2.416l.06.184h.932v-7.7H922l-.049.213c-.075.333-.164.407-.209.427a1.345,1.345,0,0,1-.61.094,3.486,3.486,0,0,1-1.037-.2c-.452-.144-.953-.283-1.5-.437-.61-.174-1.275-.327-1.8-.441a10.008,10.008,0,0,0-2.149-.214,12.558,12.558,0,0,0-4.675.943,14.133,14.133,0,0,0-4.3,2.695,14.305,14.305,0,0,0-3.167,4.223,12.817,12.817,0,0,0-.124,10.709,13.632,13.632,0,0,0,7.221,6.953,12.865,12.865,0,0,0,5.047,1.022,11.309,11.309,0,0,0,2.188-.2c.66-.12,1.3-.263,1.9-.422.576-.149,1.087-.293,1.529-.422,1-.288,1.459-.164,1.607-.065a1.023,1.023,0,0,1,.313.457l.074.164h1.008v-7.98h-1.047Zm-166.419-.248a11.946,11.946,0,0,1-.992,2.759,8.518,8.518,0,0,1-1.618,2.228,6.971,6.971,0,0,1-2.209,1.464,7.18,7.18,0,0,1-2.8.521h-5.478v-12.1h2.079a4.253,4.253,0,0,1,1.926.392,3.83,3.83,0,0,1,1.295,1.067,5.61,5.61,0,0,1,.848,1.588,18.544,18.544,0,0,1,.566,1.931l.055.208h.943V180.564h-.953l-.045.219a11.3,11.3,0,0,1-.62,2.1,5.4,5.4,0,0,1-.923,1.573,3.82,3.82,0,0,1-1.385.978,5.575,5.575,0,0,1-2.089.347h-1.7V175.5h5.3a5.76,5.76,0,0,1,2.774.615,6.811,6.811,0,0,1,1.866,1.459,7.383,7.383,0,0,1,1.136,1.742,11.317,11.317,0,0,1,.581,1.489l.059.193h.938v-6.536H733.8V175.5h3.221v23.423H733.8v1.042h22.938V191.74H755.8Zm23.586-6.171H780.5a5.751,5.751,0,0,0,2.373-.4,2.692,2.692,0,0,0,1.245-1.032,3.632,3.632,0,0,0,.541-1.519,13.137,13.137,0,0,0,.124-1.821,13.949,13.949,0,0,0-.2-2.595,4.555,4.555,0,0,0-.66-1.717,2.674,2.674,0,0,0-1.226-.978,5.7,5.7,0,0,0-2.089-.328c-.243,0-.5.015-.745.04-.173.01-.347.03-.521.045Zm15.91,12.089.75.69-.2.2c-.243.238-.471.457-.7.655a3.251,3.251,0,0,1-.833.556,4.682,4.682,0,0,1-1.132.352,8.592,8.592,0,0,1-1.632.125,6.415,6.415,0,0,1-3.142-.646,4.356,4.356,0,0,1-1.717-1.627,5.237,5.237,0,0,1-.685-2.09c-.079-.724-.134-1.389-.163-2.034-.05-1.047-.11-1.951-.184-2.764a7.545,7.545,0,0,0-.561-2.318,3.532,3.532,0,0,0-1.27-1.568,4.217,4.217,0,0,0-2.407-.586h-2.035v12.1h3.226v1.042H770.477v-1.042H773.7V175.506h-3.226v-1.038h5.573c1.047,0,2-.019,2.893-.059a27.01,27.01,0,0,1,5.861.233,9.821,9.821,0,0,1,2.868,1,6.285,6.285,0,0,1,2.179,1.92,5.19,5.19,0,0,1,.873,3.067,4.667,4.667,0,0,1-.675,2.551,5.439,5.439,0,0,1-1.717,1.712,8.168,8.168,0,0,1-2.3.992,12.872,12.872,0,0,1-1.32.3c.754.149,1.389.283,1.96.417a7.771,7.771,0,0,1,2.417.983,4.807,4.807,0,0,1,1.652,1.856,8.085,8.085,0,0,1,.75,3.126l.278,3.533a12.564,12.564,0,0,0,.292,2.02,1.482,1.482,0,0,0,.427.834,1.366,1.366,0,0,0,.794.193,1.4,1.4,0,0,0,.978-.337c.3-.268.565-.516.8-.744Zm11.982-23.407v1.043h3.221v23.418h-3.221v1.042H819.3v-1.042H816.07V175.508H819.3v-1.043Zm49.014,17.489a12.011,12.011,0,0,1-1,2.759,8.324,8.324,0,0,1-1.608,2.228,6.967,6.967,0,0,1-2.208,1.464,7.212,7.212,0,0,1-2.8.521h-5.474v-12.1h2.075a4.216,4.216,0,0,1,1.925.392,3.727,3.727,0,0,1,1.295,1.067,5.384,5.384,0,0,1,.849,1.588,19.888,19.888,0,0,1,.571,1.931l.054.208h.943V180.564H849.9l-.044.219a12,12,0,0,1-.621,2.1,5.4,5.4,0,0,1-.923,1.573,3.659,3.659,0,0,1-1.394.978,5.488,5.488,0,0,1-2.079.347h-1.7V175.5h5.3a5.765,5.765,0,0,1,2.779.615,6.7,6.7,0,0,1,1.866,1.459,7.239,7.239,0,0,1,1.137,1.742,11.054,11.054,0,0,1,.575,1.484l.055.2h.943v-6.536H834.3V175.5h3.216v23.423H834.3v1.042h22.932V191.74h-.943Zm100.5,0a12.236,12.236,0,0,1-1,2.759,8.451,8.451,0,0,1-1.613,2.228,6.911,6.911,0,0,1-2.208,1.464,7.212,7.212,0,0,1-2.8.521H943.64v-12.1h2.075a4.216,4.216,0,0,1,1.925.392,3.84,3.84,0,0,1,1.295,1.067,5.384,5.384,0,0,1,.849,1.588,19.888,19.888,0,0,1,.571,1.931l.054.208h.943V180.564H950.4l-.044.219a12,12,0,0,1-.621,2.1,5.128,5.128,0,0,1-.933,1.573,3.644,3.644,0,0,1-1.389.983,5.558,5.558,0,0,1-2.079.342H943.64V175.5h5.3a5.771,5.771,0,0,1,2.78.615,6.713,6.713,0,0,1,1.865,1.459,7.3,7.3,0,0,1,1.132,1.747,10.2,10.2,0,0,1,.58,1.479l.055.2h.938v-6.536h-21.5V175.5h3.221v23.423h-3.221v1.042h22.937V191.74h-.943ZM681.312,174.465v1.043H684.1l-4.963,7.885-4.635-7.885h2.665v-1.043H664.881v1.043H667.8l3.841,6.307,3.841,6.312-6.67,10.8h-2.982v1.042h7.2v-1.042H670.1l3.33-5.389,2.689-4.357,5.891,9.746H679.1v1.042h12.575v-1.037h0v-.005h-3.022l-2.035-3.325-6.843-11.191,2.273-3.627,3.31-5.275h2.853v-1.043Zm-28.047,17.489a11.876,11.876,0,0,1-.993,2.759,8.745,8.745,0,0,1-1.612,2.228,7.1,7.1,0,0,1-2.209,1.464,7.213,7.213,0,0,1-2.809.521h-5.468v-12.1h2.074a4.224,4.224,0,0,1,1.926.392,3.83,3.83,0,0,1,1.3,1.067,5.44,5.44,0,0,1,.848,1.588c.234.66.417,1.3.576,1.931l.05.208h.943V180.564h-.953l-.04.219a12.248,12.248,0,0,1-.63,2.1,5.3,5.3,0,0,1-.928,1.573,3.592,3.592,0,0,1-1.39.978,5.484,5.484,0,0,1-2.079.347h-1.692V175.5h5.3a5.818,5.818,0,0,1,2.784.615,6.626,6.626,0,0,1,1.866,1.459,7.6,7.6,0,0,1,1.131,1.742,11.766,11.766,0,0,1,.581,1.484l.054.2h.938v-6.536h-21.5V175.5h3.226v23.423h-3.226v1.042h22.942V191.74h-.952Zm58.023-4.905a5.656,5.656,0,0,0,4.119-1.27c.834-.849,1.256-2.318,1.256-4.382a7.724,7.724,0,0,0-1.112-4.5c-.71-1-2.05-1.5-3.98-1.5a6.408,6.408,0,0,0-.71.04c-.134.01-.263.019-.382.034v11.578Zm7.866-11.419a7.522,7.522,0,0,1,2.675,2.075,5.435,5.435,0,0,1,1.091,3.483,5.582,5.582,0,0,1-.7,2.705,6.349,6.349,0,0,1-2.124,2.2,11.6,11.6,0,0,1-3.514,1.454,20.426,20.426,0,0,1-4.943.531h-1.161v10.844h3.226v1.042H701.626v-1.042h3.226V175.506h-3.226v-1.037h3.494c1.285,0,2.451-.02,3.568-.06,1.186-.029,2.392-.044,3.583-.044a24.1,24.1,0,0,1,3.439.263,12.424,12.424,0,0,1,3.444,1M969.037,195.2a3.032,3.032,0,1,0,3.032,3.032,3.035,3.035,0,0,0-3.032-3.032m-505.448,3.934a12.92,12.92,0,0,0,5.384-.447,7.983,7.983,0,0,0,2.631-1.419,7.1,7.1,0,0,0,1.687-2.045,10.72,10.72,0,0,0,.963-2.436,16.455,16.455,0,0,0,.426-2.581c.07-.957.105-1.756.105-2.456a34.024,34.024,0,0,0-.348-5.092,9.807,9.807,0,0,0-1.345-3.821,6.512,6.512,0,0,0-2.794-2.407,11.616,11.616,0,0,0-4.808-.853c-.467,0-.884.014-1.256.024-.253.01-.471.025-.645.045Zm14.794-19.761a11.063,11.063,0,0,1,1.945,3.414,15.162,15.162,0,0,1,0,9.2,11.413,11.413,0,0,1-1.921,3.409,11.142,11.142,0,0,1-2.754,2.372,15.847,15.847,0,0,1-3.191,1.479,17.252,17.252,0,0,1-3.275.764,23.182,23.182,0,0,1-2.993.214c-1.34,0-2.665-.015-3.99-.04s-2.64-.03-3.97-.03h-3.5v-1.042h3.225V175.69h-3.225v-1.037h3.5c1.281,0,2.447-.02,3.573-.06,1.182-.03,2.387-.05,3.574-.05a29.429,29.429,0,0,1,3.364.214,19.475,19.475,0,0,1,3.524.764,16.166,16.166,0,0,1,3.31,1.479,10.881,10.881,0,0,1,2.8,2.372" transform="translate(-17.714 -30.582)"/></svg>