<svg xmlns="http://www.w3.org/2000/svg" viewBox="0 0 51.13 51.13"><defs><style>.cls-1{fill:#fff;}</style></defs><title>snowflake-1</title><g id="Layer_2" data-name="Layer 2"><g id="snowflakes"><path class="cls-1" d="M24.81,30.13a.74.74,0,1,1,.73.73A.74.74,0,0,1,24.81,30.13Zm.73-6A1.5,1.5,0,1,0,27,25.6,1.5,1.5,0,0,0,25.54,24.1Zm0,8.3a1,1,0,1,0,1,1A1,1,0,0,0,25.54,32.4Zm0,4.18a1,1,0,1,0,1,1A1,1,0,0,0,25.54,36.58Zm0,4.17a1,1,0,1,0,1,1A1,1,0,0,0,25.54,40.75Zm0,4.18a1,1,0,1,0,1,1A1,1,0,0,0,25.54,44.93Zm0,4.18a1,1,0,1,0,1,1A1,1,0,0,0,25.54,49.11Zm0-28.84a.73.73,0,1,0,.74.73A.73.73,0,0,0,25.54,20.27Zm0-1.54a1,1,0,1,0-1-1A1,1,0,0,0,25.54,18.73Zm0-4.18a1,1,0,1,0-1-1A1,1,0,0,0,25.54,14.55Zm0-4.18a1,1,0,1,0,0-2,1,1,0,1,0,0,2Zm0-4.17a1,1,0,1,0-1-1A1,1,0,0,0,25.54,6.2Zm0-4.18a1,1,0,0,0,1-1,1,1,0,1,0-2,0A1,1,0,0,0,25.54,2Zm5.32,23.56a.74.74,0,1,0-.73.74A.73.73,0,0,0,30.86,25.58Zm3.56,0a1,1,0,1,0-1,1A1,1,0,0,0,34.42,25.58Zm3.17-1a1,1,0,1,0,1,1A1,1,0,0,0,37.59,24.57Zm4.17,0a1,1,0,1,0,1,1A1,1,0,0,0,41.76,24.57Zm4.18,0a1,1,0,1,0,1,1A1,1,0,0,0,45.94,24.57Zm4.18,0a1,1,0,1,0,1,1A1,1,0,0,0,50.12,24.59ZM21,24.85a.74.74,0,1,0,.73.73A.73.73,0,0,0,21,24.85Zm-3.28-.28a1,1,0,1,0,1,1A1,1,0,0,0,17.72,24.57Zm-3.17,1a1,1,0,1,0-1,1A1,1,0,0,0,14.55,25.58Zm-5.19-1a1,1,0,1,0,1,1A1,1,0,0,0,9.36,24.57Zm-4.17,0a1,1,0,1,0,1,1A1,1,0,0,0,5.19,24.57ZM1,24.59a1,1,0,1,0,0,2,1,1,0,1,0,0-2ZM29.3,22.86a.75.75,0,0,0,0-1,.74.74,0,0,0-1,1A.75.75,0,0,0,29.3,22.86Zm1.08-3.56a1,1,0,0,0,0,1.43,1,1,0,0,0,1.43-1.43A1,1,0,0,0,30.38,19.3Zm3-2.95a1,1,0,0,0,0,1.43,1,1,0,1,0,1.43-1.43A1,1,0,0,0,33.34,16.35Zm4.38-1.52a1,1,0,0,0,0-1.43,1,1,0,0,0-1.43,0,1,1,0,1,0,1.43,1.43Zm3-3a1,1,0,0,0,0-1.43,1,1,0,1,0-1.43,1.43A1,1,0,0,0,40.67,11.87Zm-18.89,10a.73.73,0,0,0,0,1,.74.74,0,0,0,1-1A.73.73,0,0,0,21.78,21.84Zm-1.09-1.09a1,1,0,0,0,0-1.43,1,1,0,0,0-1.43,1.43A1,1,0,0,0,20.69,20.75Zm-3-2.95a1,1,0,0,0,0-1.43,1,1,0,0,0-1.43,1.43A1,1,0,0,0,17.74,17.8Zm-4.38-4.39a1,1,0,0,0,0,1.43,1,1,0,0,0,1.42,0,1,1,0,1,0-1.42-1.43Zm-3-2.95a1,1,0,0,0,0,1.43,1,1,0,0,0,1.43-1.43A1,1,0,0,0,10.4,10.46Zm17.86,17.8a.73.73,0,0,0,0,1,.74.74,0,1,0,0-1Zm2.12,2.13a1,1,0,0,0,1.43,1.43,1,1,0,0,0-1.43-1.43Zm3,3a1,1,0,0,0,0,1.43,1,1,0,1,0,0-1.43Zm2.95,2.95a1,1,0,0,0,0,1.43,1,1,0,0,0,1.43,0,1,1,0,0,0-1.43-1.43Zm3,3a1,1,0,1,0,1.43,1.43,1,1,0,0,0-1.43-1.43Zm-17.46-11a.74.74,0,0,0,1,1,.74.74,0,1,0-1-1Zm-2.52,2.13a1,1,0,0,0,1.43,1.43,1,1,0,0,0-1.43-1.43Zm-3,2.95a1,1,0,0,0,0,1.43,1,1,0,1,0,0-1.43Zm-2.95,3a1,1,0,1,0,1.42,0A1,1,0,0,0,13.36,36.28Zm-3,2.95a1,1,0,0,0,1.43,1.43,1,1,0,1,0-1.43-1.43Z"/></g></g></svg>