<?xml version="1.0" encoding="utf-8"?>
<!-- Generator: Adobe Illustrator 23.0.1, SVG Export Plug-In . SVG Version: 6.00 Build 0)  -->
<svg version="1.1" id="Layer_1" xmlns="http://www.w3.org/2000/svg" xmlns:xlink="http://www.w3.org/1999/xlink" x="0px" y="0px"
	 viewBox="0 0 360 120" style="enable-background:new 0 0 360 120;" xml:space="preserve">
<style type="text/css">
	.st0{fill:#FFFFFF;}
</style>
<path class="st0" d="M224.8,36.7c0.1,0,0.2,0,0.3,0c2.5,0,2.8-1.6,2.8-4.9V14.1c0-3.3-0.2-4.9-2.8-4.9c-0.1,0-0.2,0-0.3,0V8.8h12.5
	v0.4c-0.1,0-0.2,0-0.3,0c-2.6,0-2.8,1.6-2.8,4.9v17.7c0,0.5,0,0.9,0,1.1c0,2.6,0.7,3.8,2.7,3.8c0.1,0,0.3,0,0.4,0v0.4h-12.5V36.7z"
	/>
</svg>
