<?xml version="1.0" encoding="utf-8"?>
<!-- Generator: Adobe Illustrator 23.0.1, SVG Export Plug-In . SVG Version: 6.00 Build 0)  -->
<svg version="1.1" id="Layer_1" xmlns="http://www.w3.org/2000/svg" xmlns:xlink="http://www.w3.org/1999/xlink" x="0px" y="0px"
	 viewBox="0 0 360 120" style="enable-background:new 0 0 360 120;" xml:space="preserve">
<style type="text/css">
	.st0{fill:#FFFFFF;}
</style>
<path class="st0" d="M216.1,75.2c-0.1,0-0.2,0-0.3,0v-0.4h12.5v0.4c-0.1,0-0.2,0-0.3,0c-2.6,0-2.8,1.6-2.8,4.9v16
	c0,4-0.4,7-3.4,10.1c-2.3,2.3-5.5,3.7-8.7,3.7c-0.2,0-0.6,0-1.2,0v-0.4c2.3-0.1,4.4-1.9,5.7-4.9c1.2-2.8,1.2-5.9,1.2-9.4
	c0-0.2,0-0.4,0-0.7V80.1C218.8,76.8,218.6,75.2,216.1,75.2z"/>
</svg>
