<?xml version="1.0" encoding="utf-8"?>
<!-- Generator: Adobe Illustrator 23.0.1, SVG Export Plug-In . SVG Version: 6.00 Build 0)  -->
<svg version="1.1" id="Layer_1" xmlns="http://www.w3.org/2000/svg" xmlns:xlink="http://www.w3.org/1999/xlink" x="0px" y="0px"
	 viewBox="0 0 360 120" style="enable-background:new 0 0 360 120;" xml:space="preserve">
<style type="text/css">
	.st0{fill:#FFFFFF;}
</style>
<path class="st0" d="M267.4,36.6c0.1,0,0.2,0,0.3,0c2.5,0,2.8-1.5,2.8-4.8V14.1c0-3.4-0.2-4.8-2.8-4.8c0,0-0.1,0-0.2,0V8.8H279
	c3.2,0,5.6,0.4,7.9,1.8c4,2.5,6.6,7.5,6.6,12.8c0,4.9-2.3,9-6.2,11.6c-3.1,2-6.3,2.1-10.1,2.1h-9.8V36.6z M277.9,36.6
	c6.6,0,8.6-2.7,8.6-13.2c0-9.8-2.4-14.2-7.8-14.2h-1.9v27.4H277.9z"/>
</svg>
