<?xml version="1.0" encoding="utf-8"?>
<!-- Generator: Adobe Illustrator 23.0.1, SVG Export Plug-In . SVG Version: 6.00 Build 0)  -->
<svg version="1.1" id="Layer_1" xmlns="http://www.w3.org/2000/svg" xmlns:xlink="http://www.w3.org/1999/xlink" x="0px" y="0px"
	 viewBox="0 0 193.4 34.6" style="enable-background:new 0 0 193.4 34.6;" xml:space="preserve">
<style type="text/css">
	.st0{fill:#FFFFFF;}
</style>
<path class="st0" d="M21.6,28.6c2.8,3.1,6.7,5.1,11.1,5.6v0.2H2.6v-0.2c4.4-0.5,8.3-2.6,11.1-5.7c1.3,0.4,2.6,0.7,4,0.7
	C19.1,29.2,20.4,29,21.6,28.6 M17.7,25.1c-0.5,0-1,0-1.4-0.1c-0.5,1-1.1,1.9-1.8,2.8c1.1,0.3,2.2,0.5,3.4,0.5c1.1,0,2.2-0.2,3.2-0.4
	c-0.7-0.9-1.3-1.8-1.9-2.9C18.6,25.1,18.1,25.1,17.7,25.1 M34.7,1c-4.7,0-8.9,1.9-12,5c2.9,1.3,5.3,3.6,6.5,6.5l-0.9,0.4
	c-1.2-2.8-3.4-5-6.3-6.2c-0.7,0.8-1.4,1.8-1.9,2.7c2.3,0.7,4.2,2.5,5.1,4.7l-0.9,0.4c-0.8-2-2.5-3.5-4.7-4.2c-1,2.1-1.6,4.4-1.6,6.9
	c0,2.4,0.5,4.6,1.5,6.6c2.2-0.6,4-2.2,4.8-4.2l0.8,0.4c-0.9,2.2-2.8,4-5.2,4.7c0.5,1,1.2,1.9,1.9,2.8c3-1.1,5.3-3.4,6.5-6.3l0.9,0.4
	c0,0,0,0,0,0c-1.2,3-3.7,5.3-6.7,6.6c3,3.2,7.4,5.2,12.2,5.2c0.2,0,0.4,0,0.6,0l0-8.5l0-23.8C35.1,1,34.9,1,34.7,1 M16.7,24.1
	c0.3,0,0.7,0.1,1,0.1c0.3,0,0.7,0,1-0.1c-0.4-0.9-0.8-1.9-1-3C17.4,22.2,17.1,23.1,16.7,24.1 M13.6,5.7C14.9,5.2,16.3,5,17.8,5
	c1.4,0,2.8,0.2,4,0.7c2.8-2.9,6.6-4.9,10.9-5.4V0H2.6v0.2C7,0.7,10.8,2.7,13.6,5.7 M0.6,33.4c4.8,0,9.2-2,12.2-5.3
	C8.5,26.3,5.4,22,5.4,17.1c0-4.9,3-9.1,7.2-11C9.6,3,5.3,1,0.6,1C0.4,1,0.2,1,0,1v32.4C0.2,33.4,0.4,33.4,0.6,33.4 M9.4,17.1
	c0-3.6,2.4-6.6,5.7-7.6c-0.5-0.9-1.2-1.8-1.9-2.6c-4.1,1.7-6.9,5.7-6.9,10.3c0,4.7,3,8.7,7.1,10.4c0.7-0.8,1.3-1.7,1.8-2.7
	C11.9,23.8,9.4,20.7,9.4,17.1 M17.7,9.1c0.5,0,1.1,0.1,1.6,0.2c0.5-1,1.2-2,1.9-2.8c-1.1-0.3-2.2-0.5-3.4-0.5
	c-1.2,0-2.5,0.2-3.6,0.6c0.7,0.9,1.3,1.8,1.9,2.7C16.6,9.1,17.1,9.1,17.7,9.1 M16.5,10.1c0.5,1,0.9,2.1,1.1,3.2
	c0.3-1.1,0.6-2.2,1.1-3.2C18.4,10.1,18,10,17.6,10C17.3,10,16.9,10.1,16.5,10.1 M10.4,17.1c0,3.3,2.3,6,5.3,6.8
	c0.9-2,1.5-4.3,1.5-6.7c0-2.5-0.6-4.8-1.6-6.9C12.6,11.2,10.4,13.9,10.4,17.1 M35.3,3.3V1V3.3z M52.9,17.7c1.6,0,2.7-0.8,3.5-1.3
	c0.4-0.3,0.7-0.5,1-0.5c0.5,0,0.8,0.7,0.8,1.1v0h0.5v-5.7h-0.5v0c0,2.8-2.1,5.8-5.3,5.8c-4,0-4.8-4.5-4.8-8.3s0.8-8.3,4.8-8.3
	c2.8,0,5.3,2.5,5.3,5.3v0h0.5V0.9h-0.5v0c0,0.6-0.3,1-0.9,1c-0.3,0-0.7-0.2-1.1-0.5c-0.7-0.5-1.7-1.2-3.3-1.2c-4.2,0-7.7,4-7.7,8.7
	C45.2,13.7,48.7,17.7,52.9,17.7 M67.2,16.8H65v-11L65,5.8c-0.5,0.5-1.4,0.6-2.2,0.6h-2.2v0.5h2.2v9.9h-2.2v0.5h6.7V16.8z M72.8,17.6
	c2.3,0,2.9-1.8,3-2l0,0l-0.5-0.1l0,0c-0.1,0.3-0.7,1.6-2.1,1.6c-0.9,0-1.3-0.4-1.3-1.4V6.9V6.4V2.7h-0.4l0,0
	c-0.5,2.7-1.6,3.7-4.2,3.6l0,0v0.5h2.3v8.3C69.6,16.8,70.7,17.6,72.8,17.6 M77.9,24.4c1.9,0,2.4-1.7,3.5-5.8c0.1-0.4,0.7-1.9,1.5-4
	l2.4-5.9l0-0.1c0.6-1.4,0.7-1.7,2.4-1.7h0V6.4h-5.3v0.5h1.1c1.1,0,1.5,0.2,1.5,0.6c0,0.3-0.1,0.7-0.3,1.2L82.2,15l-3.5-8.1h1.9V6.4
	H72v0.5h4l5,11.2c0,0.1-0.1,0.3-0.1,0.5c-0.3,1.3-1.1,4.7-1.9,4.7c-0.1,0-0.2,0-0.2-0.2c0-0.1,0-0.1,0-0.2c0-0.1,0-0.1,0-0.3
	c0-0.5-0.5-1-1.2-1c-0.8,0-1.3,0.5-1.3,1.3C76.3,23.8,76.9,24.4,77.9,24.4 M96.6,17.6c1.6,0,2.7-0.8,3.5-1.3c0.4-0.3,0.7-0.5,1-0.5
	c0.5,0,0.8,0.7,0.8,1.1v0h0.5v-5.7h-0.5v0c0,2.8-2.1,5.8-5.3,5.8c-4,0-4.8-4.5-4.8-8.3c0-3.8,0.8-8.3,4.8-8.3c2.8,0,5.3,2.5,5.3,5.3
	v0h0.5V0.9h-0.5v0c0,0.6-0.3,1-0.9,1c-0.3,0-0.7-0.2-1.1-0.5c-0.7-0.5-1.8-1.2-3.3-1.2c-4.2,0-7.7,4-7.7,8.7
	C88.9,13.7,92.5,17.6,96.6,17.6 M109.9,17.6c2.5,0,4.3-1.6,4.8-4.1l0-0.1h-0.5l0,0c-0.4,2.2-2.1,3.6-4.3,3.6c-0.8,0-1.4-0.2-1.9-0.7
	c-0.8-0.8-0.9-2.2-0.9-3.3v-2.4h7c0.2,0,0.3-0.1,0.3-0.3c0-1.2-1.7-4.6-4.9-4.6c-2.9,0-5.1,3.2-5.1,5.9
	C104.5,15.2,106.7,17.6,109.9,17.6 M107.2,9.5c0-1.5,0.4-3.2,2.4-3.2c1.5,0,2.2,1.1,2.2,3.2v0.6c0,0.1,0,0.1-0.1,0.1h-4.5V9.5z
	 M130.2,16.8h-2.1V8.8c0-1.4-0.6-3-3.7-3c-2.3,0-3.6,1.8-4,2.7V5.7l-0.1,0.1c-0.5,0.6-1,0.6-2.2,0.6h-2.2v0.5h2.1v9.9h-2.1v0.5h6.5
	v-0.5h-2.1l0-7.4l0,0c0.5-0.9,1.6-3,3.8-3c0.7,0,1.5,0.3,1.5,1.9v8.6h-2.1v0.5h6.6V16.8z M135.7,17.6c2.3,0,2.9-1.8,3-2l0,0
	l-0.5-0.1l0,0c-0.1,0.3-0.7,1.6-2.1,1.6c-0.9,0-1.3-0.4-1.3-1.4V6.9h3.7V6.4h-3.7V2.7h-0.4l0,0c-0.5,2.7-1.6,3.7-4.2,3.6l0,0v0.5
	h2.3v8.3C132.5,16.8,133.6,17.6,135.7,17.6 M144.9,17.6c2.5,0,4.3-1.6,4.8-4.1l0-0.1h-0.5l0,0c-0.4,2.2-2.1,3.6-4.3,3.6
	c-0.8,0-1.4-0.2-1.9-0.7c-0.8-0.8-0.9-2.2-0.9-3.3v-2.4h7c0.2,0,0.3-0.1,0.3-0.3c0-1.2-1.7-4.6-4.9-4.6c-2.9,0-5.1,3.2-5.1,5.9
	C139.5,15.2,141.7,17.6,144.9,17.6 M142.1,9.5c0-1.5,0.4-3.2,2.4-3.2c1.5,0,2.2,1.1,2.2,3.2v0.6c0,0.1,0,0.1-0.1,0.1h-4.5V9.5z
	 M158,16.8h-2.5v-5.4c0-3.4,2-5.1,3.1-5.1c0.1,0,0.2,0,0.3,0c-0.3,0.2-0.6,0.6-0.6,1.1c0,0.8,0.4,1.2,1.2,1.2c0.8,0,1.3-0.5,1.3-1.3
	c0-0.9-0.8-1.6-1.8-1.6c-2.3,0-3.2,2-3.5,3V5.8l-0.1,0.1c-0.5,0.5-1.4,0.6-2.2,0.6h-2.3v0.5h2.3v9.9h-2.3v0.5h7.1V16.8z M169.4,17.3
	c5,0,8.3-3.3,8.3-8.3c0-3.1-1.7-8.3-8.3-8.3h-7.6V1h2.3v15.8h-2.3v0.5H169.4 M166.6,1h1.1c6.3,0,7.1,4.5,7.1,7.9
	c0,6.5-3.4,7.9-6.2,7.9h-2V1z M187,17.6c1.6,0,2.7-0.8,3.5-1.3c0.4-0.3,0.7-0.5,1-0.5c0.5,0,0.8,0.7,0.8,1.1v0h0.5v-5.7h-0.5v0
	c0,2.8-2.1,5.8-5.3,5.8c-4,0-4.8-4.5-4.8-8.3c0-3.8,0.8-8.3,4.8-8.3c2.8,0,5.3,2.5,5.3,5.3v0h0.5V0.9h-0.5v0c0,0.6-0.3,1-0.8,1
	c-0.3,0-0.7-0.2-1.1-0.5c-0.7-0.5-1.7-1.2-3.3-1.2c-4.2,0-7.7,4-7.7,8.7C179.3,13.7,182.8,17.6,187,17.6 M63.9,2.5
	c-0.7,0-1.2,0.6-1.2,1.3c0,0.7,0.5,1.3,1.2,1.3c0.7,0,1.2-0.6,1.2-1.3C65.1,3.1,64.6,2.5,63.9,2.5 M80.2,33.4
	c-0.3,0-0.6,0.3-0.6,0.6c0,0.3,0.3,0.6,0.6,0.6c0.3,0,0.6-0.3,0.6-0.6C80.8,33.6,80.5,33.4,80.2,33.4 M116.1,33.4
	c-0.3,0-0.6,0.3-0.6,0.6c0,0.3,0.3,0.6,0.6,0.6c0.3,0,0.6-0.3,0.6-0.6C116.7,33.6,116.4,33.4,116.1,33.4 M175.7,29.2v0.2h0.7v3.1
	l-2.3-3.3h-1.8v0.2h0.7v4.7h-0.7v0v0.2h1.5v-0.2v0h-0.7v-4.2l3.1,4.4l0,0h0.3v-5h0.7v-0.2H175.7z M96.6,29.2v0.2h0.7v4.7h-0.7v0v0.2
	h2.4v-0.2v0h-0.7v-4.7h0.7v-0.2H96.6z M105.3,29.2v0.2h0.7v3.1l-1.8-2.5l-0.5-0.8l0,0h-1.8h0v0.2h0h0.7v4.7h-0.7v0.2h0h1.5v-0.2
	h-0.7v-4.2l3.1,4.4l0,0h0.3v-5h0.7v-0.2H105.3z M70.6,32.7c-0.1,0.3-0.1,0.5-0.3,0.7c-0.1,0.2-0.2,0.3-0.4,0.5
	c-0.1,0.1-0.3,0.2-0.4,0.2c-0.2,0-0.3,0.1-0.5,0.1H68v-4.7h0.7v-0.2h-2.4v0.2h0.7v4.7h-0.7v0.2h4.6v-1.7L70.6,32.7L70.6,32.7z
	 M51.6,30.6h0.2l0,0c0.1-0.2,0.1-0.4,0.2-0.6c0.1-0.2,0.2-0.3,0.3-0.4c0.1-0.1,0.2-0.1,0.3-0.2c0.1,0,0.3-0.1,0.5-0.1h0.2v4.7h-0.7
	v0.2h2.4v-0.2h-0.7v-4.7h0.2c0.2,0,0.3,0,0.5,0.1c0.1,0,0.2,0.1,0.3,0.2c0.1,0.1,0.2,0.2,0.3,0.4c0.1,0.1,0.2,0.3,0.2,0.6l0,0h0.2
	v-1.4h-4.6V30.6z M49,31.6c-0.1-0.1-0.3-0.2-0.5-0.3c-0.2-0.1-0.4-0.1-0.6-0.2c-0.2-0.1-0.4-0.1-0.5-0.2l0,0
	c-0.2-0.1-0.3-0.1-0.5-0.2c-0.1-0.1-0.2-0.2-0.3-0.3c-0.1-0.1-0.1-0.2-0.1-0.4c0-0.1,0-0.2,0.1-0.3c0-0.1,0.1-0.2,0.2-0.3
	c0.1-0.1,0.2-0.1,0.3-0.2c0.1-0.1,0.3-0.1,0.5-0.1c0.2,0,0.4,0,0.5,0.1c0.1,0.1,0.3,0.2,0.4,0.3c0.1,0.1,0.2,0.3,0.2,0.4
	c0.1,0.2,0.1,0.3,0.2,0.5l0,0H49v-1.5h-0.2l0,0c0,0.1,0,0.1-0.1,0.1c0,0,0,0-0.1,0c-0.1,0-0.1,0-0.2,0c-0.1,0-0.2-0.1-0.2-0.1
	c-0.1,0-0.2-0.1-0.3-0.1c-0.1,0-0.3,0-0.4,0c-0.3,0-0.5,0-0.7,0.1c-0.2,0.1-0.4,0.2-0.6,0.3c-0.2,0.1-0.3,0.3-0.4,0.5
	c-0.1,0.2-0.1,0.4-0.1,0.6c0,0.3,0,0.5,0.1,0.7c0.1,0.2,0.2,0.3,0.3,0.4c0.1,0.1,0.3,0.2,0.5,0.3c0.2,0.1,0.4,0.1,0.5,0.2
	c0.1,0,0.3,0.1,0.4,0.1l0.1,0c0.2,0,0.3,0.1,0.5,0.2c0.1,0.1,0.2,0.2,0.3,0.3c0.1,0.1,0.1,0.2,0.1,0.4c0,0.1,0,0.2-0.1,0.3
	c0,0.1-0.1,0.2-0.2,0.3c-0.1,0.1-0.2,0.2-0.4,0.3c-0.2,0.1-0.4,0.1-0.6,0.1c-0.1,0-0.1,0-0.2,0c-0.1,0-0.2,0-0.2,0
	c-0.1,0-0.2-0.1-0.3-0.1c-0.1-0.1-0.2-0.1-0.3-0.2c-0.1-0.1-0.2-0.2-0.2-0.3c-0.1-0.1-0.1-0.2-0.2-0.3c0-0.1-0.1-0.2-0.1-0.3
	c0-0.1,0-0.2,0-0.2l0,0h-0.2v1.7h0.2l0,0c0-0.1,0-0.1,0.1-0.1c0,0,0,0,0.1,0c0,0,0.1,0,0.2,0c0.1,0,0.2,0.1,0.3,0.1
	c0.1,0,0.2,0.1,0.4,0.1c0.1,0,0.3,0,0.4,0c0.3,0,0.6,0,0.8-0.1c0.2-0.1,0.5-0.2,0.6-0.4c0.2-0.2,0.3-0.4,0.4-0.6
	c0.1-0.2,0.1-0.4,0.1-0.7c0-0.2,0-0.5-0.1-0.6C49.2,31.9,49.1,31.7,49,31.6 M113.6,32.7c0,0.2-0.1,0.4-0.2,0.6
	c-0.1,0.2-0.2,0.3-0.3,0.5c-0.1,0.1-0.3,0.2-0.4,0.3c-0.2,0.1-0.4,0.1-0.6,0.1h-1.1v-2.5h0.4c0.2,0,0.3,0,0.4,0.1
	c0.1,0.1,0.2,0.1,0.3,0.2c0.1,0.1,0.1,0.2,0.2,0.3c0,0.1,0.1,0.2,0.1,0.4l0,0h0.2v-2.3h-0.2l0,0c0,0.2-0.1,0.3-0.1,0.4
	c0,0.1-0.1,0.2-0.2,0.3c-0.1,0.1-0.2,0.2-0.3,0.2c-0.1,0-0.3,0.1-0.4,0.1h-0.3v-2.1h1.1c0.2,0,0.4,0,0.6,0.1
	c0.2,0.1,0.3,0.2,0.4,0.3c0.1,0.1,0.2,0.2,0.2,0.4c0.1,0.1,0.1,0.2,0.1,0.3l0,0h0.2v-1.3h-4.4v0.2h0.7v4.7h-0.7v0.2h4.7v-1.7
	L113.6,32.7L113.6,32.7z M63.8,29.2h-1.5v0.2H63l-1.2,2.3l-1.4-2.3h0.5h0v-0.2h-2.4h0v0.2h0h0.6l1.6,2.8v1.9h-0.7v0.2h0h2.5v-0.2
	h-0.7v-2.2l1.3-2.6h0.6h0L63.8,29.2L63.8,29.2z M77.5,32.7c0,0.2-0.1,0.4-0.2,0.6c-0.1,0.2-0.2,0.3-0.3,0.5
	c-0.1,0.1-0.3,0.2-0.4,0.3c-0.2,0.1-0.4,0.1-0.6,0.1h-1.1v-2.5h0.4c0.2,0,0.3,0,0.4,0.1c0.1,0.1,0.2,0.1,0.3,0.2
	c0.1,0.1,0.1,0.2,0.2,0.3c0,0.1,0.1,0.3,0.1,0.4l0,0h0.2v-2.3h-0.2l0,0c0,0.2-0.1,0.3-0.1,0.4c0,0.1-0.1,0.2-0.2,0.3
	c-0.1,0.1-0.2,0.2-0.3,0.2c-0.1,0-0.3,0.1-0.4,0.1h-0.3v-2.1H76c0.2,0,0.4,0,0.6,0.1c0.2,0.1,0.3,0.2,0.4,0.3
	c0.1,0.1,0.2,0.2,0.2,0.4c0.1,0.1,0.1,0.2,0.1,0.3l0,0h0.2v-1.3h-4.4v0.2h0.7v4.7h-0.7v0.2h4.7v-1.7L77.5,32.7L77.5,32.7z
	 M183.3,32.8c0,0.2-0.1,0.4-0.2,0.5c-0.1,0.2-0.2,0.3-0.3,0.5c-0.1,0.1-0.3,0.2-0.4,0.3c-0.2,0.1-0.4,0.1-0.6,0.1
	c-0.3,0-0.5,0-0.7-0.1c-0.2-0.1-0.3-0.2-0.4-0.4c-0.1-0.2-0.2-0.4-0.3-0.7c-0.1-0.3-0.1-0.7-0.1-1.2c0-0.4,0-0.7,0-1
	c0-0.3,0.1-0.6,0.2-0.8c0.1-0.2,0.2-0.4,0.4-0.5c0.2-0.1,0.5-0.2,0.8-0.2c0.2,0,0.5,0,0.6,0.1c0.2,0.1,0.3,0.2,0.4,0.3
	c0.1,0.1,0.2,0.3,0.3,0.5c0.1,0.2,0.1,0.3,0.2,0.5l0,0h0.2v-1.6h-0.2l0,0c0,0.1,0,0.1,0,0.1c0,0-0.1,0-0.1,0c-0.1,0-0.1,0-0.2,0
	c-0.1,0-0.2-0.1-0.3-0.1c-0.1,0-0.3-0.1-0.4-0.1c-0.1,0-0.3,0-0.4,0c-0.3,0-0.6,0.1-0.9,0.2c-0.3,0.1-0.6,0.3-0.9,0.5
	c-0.3,0.2-0.5,0.5-0.6,0.9c-0.2,0.3-0.3,0.7-0.3,1.1c0,0.4,0.1,0.7,0.2,1.1c0.2,0.3,0.4,0.6,0.6,0.8c0.2,0.2,0.5,0.4,0.9,0.6
	c0.3,0.1,0.7,0.2,1,0.2c0.2,0,0.3,0,0.4,0c0.1,0,0.3-0.1,0.4-0.1c0.1,0,0.2-0.1,0.3-0.1c0.2-0.1,0.3,0,0.3,0c0,0,0,0,0.1,0.1l0,0
	h0.2v-1.6L183.3,32.8L183.3,32.8z M149.6,32.7c0,0.2-0.1,0.4-0.2,0.6c-0.1,0.2-0.2,0.3-0.3,0.5c-0.1,0.1-0.3,0.2-0.4,0.3
	c-0.2,0.1-0.4,0.1-0.6,0.1h-1.1v-2.5h0.4c0.2,0,0.3,0,0.4,0.1c0.1,0.1,0.2,0.1,0.3,0.2c0.1,0.1,0.1,0.2,0.2,0.3
	c0,0.1,0.1,0.2,0.1,0.4l0,0h0.2v-2.3h-0.2l0,0c0,0.2-0.1,0.3-0.1,0.4c0,0.1-0.1,0.2-0.2,0.3c-0.1,0.1-0.2,0.2-0.3,0.2
	c-0.1,0-0.3,0.1-0.4,0.1h-0.3v-2.1h1.1c0.2,0,0.4,0,0.6,0.1c0.2,0.1,0.3,0.2,0.4,0.3c0.1,0.1,0.2,0.2,0.2,0.4
	c0.1,0.1,0.1,0.2,0.1,0.3l0,0h0.2v-1.3h-4.4v0.2h0.7v4.7h-0.7v0.2h4.6v-1.7L149.6,32.7L149.6,32.7z M157.6,33.9l0.2,0.1l0,0
	c0,0-0.1,0.1-0.1,0.1c0,0-0.1,0.1-0.2,0.1c-0.1,0-0.1,0.1-0.2,0.1c-0.1,0-0.2,0-0.3,0c-0.3,0-0.5,0-0.6-0.1
	c-0.2-0.1-0.3-0.2-0.3-0.3c-0.1-0.1-0.1-0.3-0.1-0.4c0-0.1,0-0.3,0-0.4c0-0.2,0-0.4,0-0.6c0-0.2-0.1-0.3-0.1-0.5
	c-0.1-0.1-0.1-0.2-0.3-0.3c-0.1-0.1-0.3-0.1-0.5-0.1h-0.4v2.5h0.7v0.2h-2.4v-0.2h0.7v-4.7h-0.7v-0.2h1.1c0.2,0,0.4,0,0.6,0
	c0.4,0,0.8,0,1.2,0c0.2,0,0.4,0.1,0.6,0.2c0.2,0.1,0.3,0.2,0.4,0.4c0.1,0.2,0.2,0.4,0.2,0.6c0,0.2,0,0.4-0.1,0.5
	c-0.1,0.1-0.2,0.3-0.3,0.3c-0.1,0.1-0.3,0.2-0.5,0.2c-0.1,0-0.2,0-0.3,0.1c0.2,0,0.3,0.1,0.4,0.1c0.2,0,0.4,0.1,0.5,0.2
	c0.1,0.1,0.3,0.2,0.3,0.4c0.1,0.2,0.1,0.4,0.2,0.6l0.1,0.7c0,0.2,0,0.3,0.1,0.4c0,0.1,0.1,0.2,0.1,0.2c0,0,0.1,0,0.2,0
	c0.1,0,0.1,0,0.2-0.1C157.5,34,157.5,34,157.6,33.9L157.6,33.9z M154.4,31.5h0.2c0.2,0,0.4,0,0.5-0.1c0.1-0.1,0.2-0.1,0.3-0.2
	c0.1-0.1,0.1-0.2,0.1-0.3c0-0.1,0-0.2,0-0.4c0-0.2,0-0.4,0-0.5c0-0.1-0.1-0.3-0.1-0.3c-0.1-0.1-0.1-0.2-0.2-0.2
	c-0.1,0-0.3-0.1-0.4-0.1c0,0-0.1,0-0.2,0c0,0-0.1,0-0.1,0V31.5z M160,29.2v0.2h0.7v4.7H160v0v0.2h2.4v-0.2v0h-0.7v-4.7h0.7v-0.2H160
	z M170,32.7c0,0.2-0.1,0.4-0.2,0.6c-0.1,0.2-0.2,0.3-0.3,0.5c-0.1,0.1-0.3,0.2-0.4,0.3c-0.2,0.1-0.4,0.1-0.6,0.1h-1.1v-2.5h0.4
	c0.2,0,0.3,0,0.4,0.1c0.1,0.1,0.2,0.1,0.3,0.2c0.1,0.1,0.1,0.2,0.2,0.3c0,0.1,0.1,0.3,0.1,0.4l0,0h0.2v-2.3h-0.2l0,0
	c0,0.2-0.1,0.3-0.1,0.4c0,0.1-0.1,0.2-0.2,0.3c-0.1,0.1-0.2,0.2-0.3,0.2c-0.1,0-0.3,0.1-0.4,0.1h-0.3v-2.1h1.1c0.2,0,0.4,0,0.6,0.1
	c0.2,0.1,0.3,0.2,0.4,0.3c0.1,0.1,0.2,0.2,0.2,0.4c0.1,0.1,0.1,0.2,0.1,0.3l0,0h0.2v-1.3h-4.4v0.2h0.7v4.7h-0.7v0.2h4.6v-1.7
	L170,32.7L170,32.7z M190.3,32.7c0,0.2-0.1,0.4-0.2,0.6c-0.1,0.2-0.2,0.3-0.3,0.5c-0.1,0.1-0.3,0.2-0.4,0.3
	c-0.2,0.1-0.4,0.1-0.6,0.1h-1.1v-2.5h0.4c0.2,0,0.3,0,0.4,0.1c0.1,0.1,0.2,0.1,0.3,0.2c0.1,0.1,0.1,0.2,0.2,0.3
	c0,0.1,0.1,0.3,0.1,0.4l0,0h0.2v-2.3H189l0,0c0,0.2-0.1,0.3-0.1,0.4c0,0.1-0.1,0.2-0.2,0.3c-0.1,0.1-0.2,0.2-0.3,0.2
	c-0.1,0-0.3,0.1-0.4,0.1h-0.3v-2.1h1.1c0.2,0,0.4,0,0.6,0.1c0.2,0.1,0.3,0.2,0.4,0.3c0.1,0.1,0.2,0.2,0.2,0.4
	c0.1,0.1,0.1,0.2,0.1,0.3l0,0h0.2v-1.3h-4.4v0.2h0.7v4.7h-0.7v0.2h4.6v-1.7L190.3,32.7L190.3,32.7z M134.5,29.2v0.2h0.6l-1,1.6
	l-0.9-1.6h0.5h0v-0.2h0h-2.5v0.2h0.6l0.8,1.3l0.8,1.3l-1.4,2.2h-0.6v0v0.2h1.5v-0.2v0h-0.6l0.7-1.1l0.5-0.9l1.2,2H134v0.2h0h2.5
	v-0.2h0v0H136l-0.4-0.7l-1.4-2.3l0.5-0.7l0.7-1.1h0.6v-0.2H134.5z M128.8,32.7c0,0.2-0.1,0.4-0.2,0.6c-0.1,0.2-0.2,0.3-0.3,0.5
	c-0.1,0.1-0.3,0.2-0.4,0.3c-0.2,0.1-0.4,0.1-0.6,0.1h-1.1v-2.5h0.4c0.2,0,0.3,0,0.4,0.1c0.1,0.1,0.2,0.1,0.3,0.2
	c0.1,0.1,0.1,0.2,0.2,0.3c0,0.1,0.1,0.3,0.1,0.4l0,0h0.2v-2.3h-0.2l0,0c0,0.2-0.1,0.3-0.1,0.4c0,0.1-0.1,0.2-0.2,0.3
	c-0.1,0.1-0.2,0.2-0.3,0.2c-0.1,0-0.3,0.1-0.4,0.1h-0.3v-2.1h1.1c0.2,0,0.4,0,0.6,0.1c0.2,0.1,0.3,0.2,0.4,0.3
	c0.1,0.1,0.2,0.2,0.2,0.4c0.1,0.1,0.1,0.2,0.1,0.3l0,0h0.2v-1.3h-4.4v0.2h0.7v4.7h-0.7v0.2h4.6v-1.7L128.8,32.7L128.8,32.7z
	 M142.2,29.4c0.2,0.1,0.4,0.2,0.5,0.4c0.1,0.2,0.2,0.4,0.2,0.7c0,0.2,0,0.4-0.1,0.5c-0.1,0.2-0.2,0.3-0.4,0.4
	c-0.2,0.1-0.4,0.2-0.7,0.3c-0.3,0.1-0.6,0.1-1,0.1h-0.2v2.2h0.7v0.2h-2.4v-0.2h0.7v-4.7h-0.7v-0.2h0.7c0.3,0,0.5,0,0.7,0
	c0.2,0,0.5,0,0.7,0c0.2,0,0.4,0,0.7,0.1C141.7,29.2,142,29.3,142.2,29.4 M140.6,31.7c0.4,0,0.7-0.1,0.8-0.3c0.2-0.2,0.3-0.5,0.3-0.9
	c0-0.4-0.1-0.7-0.2-0.9c-0.1-0.2-0.4-0.3-0.8-0.3c-0.1,0-0.1,0-0.1,0c0,0-0.1,0-0.1,0v2.3H140.6z M192.8,33.4
	c-0.3,0-0.6,0.3-0.6,0.6c0,0.3,0.3,0.6,0.6,0.6c0.3,0,0.6-0.3,0.6-0.6C193.4,33.6,193.2,33.4,192.8,33.4 M93.4,30.2
	c0.2,0.2,0.3,0.4,0.4,0.7c0.1,0.3,0.1,0.6,0.1,0.9c0,0.3,0,0.7-0.1,0.9c-0.1,0.3-0.2,0.5-0.4,0.7c-0.2,0.2-0.3,0.4-0.6,0.5
	c-0.2,0.1-0.4,0.2-0.6,0.3c-0.2,0.1-0.4,0.1-0.7,0.2c-0.2,0-0.4,0-0.6,0c-0.3,0-0.5,0-0.8,0c-0.3,0-0.5,0-0.8,0h-0.7v-0.2h0.7v-4.7
	h-0.7v-0.2h0.7c0.3,0,0.5,0,0.7,0c0.2,0,0.5,0,0.7,0c0.2,0,0.4,0,0.7,0c0.2,0,0.5,0.1,0.7,0.2c0.2,0.1,0.5,0.2,0.7,0.3
	C93,29.8,93.2,30,93.4,30.2 M90.4,34.2c0.4,0,0.8,0,1.1-0.1c0.2-0.1,0.4-0.2,0.5-0.3c0.1-0.1,0.3-0.3,0.3-0.4
	c0.1-0.2,0.2-0.3,0.2-0.5c0-0.2,0.1-0.4,0.1-0.5c0-0.2,0-0.4,0-0.5c0-0.4,0-0.7-0.1-1c0-0.3-0.1-0.6-0.3-0.8
	c-0.1-0.2-0.3-0.4-0.6-0.5c-0.2-0.1-0.6-0.2-1-0.2c-0.1,0-0.2,0-0.3,0c-0.1,0-0.1,0-0.1,0V34.2z"/>
</svg>
