<?xml version="1.0" encoding="utf-8"?>
<!-- Generator: Adobe Illustrator 23.0.1, SVG Export Plug-In . SVG Version: 6.00 Build 0)  -->
<svg version="1.1" id="Layer_1" xmlns="http://www.w3.org/2000/svg" xmlns:xlink="http://www.w3.org/1999/xlink" x="0px" y="0px"
	 viewBox="0 0 360 120" style="enable-background:new 0 0 360 120;" xml:space="preserve">
<style type="text/css">
	.st0{fill:#FFFFFF;}
</style>
<path class="st0" d="M259.1,66c1,2.4,2.8,3.6,5.1,3.6c2.5,0,4.6-1.2,5.7-3.4c0.8-1.6,0.9-3.6,0.9-5.9c0-0.2,0-0.4,0-0.6v-8.2
	c0-6.1-0.8-9.1-5-9.2v-0.4h10.3v0.4c-4.2,0-4.9,3.2-4.9,9.2v8.3c0,0.2,0,0.5,0,0.9c0,2.6-0.1,4.5-1.3,6.3c-1.6,2.3-4.2,3.6-7.6,3.6
	c-3.9,0-6.8-1.3-8.6-3.7c-1.6-2.1-1.7-4.5-1.7-7.8c0-0.3,0-0.6,0-0.9V47.1c0-3.3-0.2-4.9-2.8-4.9c-0.1,0-0.2,0-0.3,0v-0.4h12.5v0.4
	c-0.1,0-0.2,0-0.3,0c-2.6,0-2.8,1.6-2.8,4.9v12.7C258.4,62.5,258.5,64.6,259.1,66z"/>
</svg>
