<?xml version="1.0" encoding="utf-8"?>
<!-- Generator: Adobe Illustrator 23.0.1, SVG Export Plug-In . SVG Version: 6.00 Build 0)  -->
<svg version="1.1" id="Layer_1" xmlns="http://www.w3.org/2000/svg" xmlns:xlink="http://www.w3.org/1999/xlink" x="0px" y="0px"
	 viewBox="0 0 360 120" style="enable-background:new 0 0 360 120;" xml:space="preserve">
<style type="text/css">
	.st0{fill:#FFFFFF;}
</style>
<path class="st0" d="M212.4,32.9c0,2.6,0.7,3.8,2.6,3.8c0.1,0,0.3,0,0.4,0v0.4H203v-0.4c0.1,0,0.2,0,0.3,0c2.5,0,2.8-1.6,2.8-4.9
	V14.1c0-3.3-0.2-4.9-2.8-4.9c-0.1,0-0.2,0-0.3,0V8.8h19.9l0.7,8.6h-0.4c-0.5-4.6-4.4-8.2-10-8.2c-0.2,0-0.5,0-0.7,0v13
	c0.1,0,0.1,0,0.2,0c3.8,0,6-2.2,6-5.9h0.4v13.1h-0.4c-0.3-4.3-2.6-6.8-6.2-6.8c0,0,0,0-0.1,0v9.2C212.4,32,212.4,32.4,212.4,32.9z"
	/>
</svg>
