<svg xmlns="http://www.w3.org/2000/svg" viewBox="0 0 100 100"><defs><style>.cls-1{fill:none;opacity:0.2;}.cls-2{fill:#fff;}</style></defs><title>01_f</title><g id="Layer_2" data-name="Layer 2"><g id="Layer_1-2" data-name="Layer 1"><g id="_01_f" data-name="01_f"><rect class="cls-1" width="100" height="100"/><path class="cls-2" d="M50,72.17c0,5.88,1.59,8.6,5.88,8.6h.91v.9h-28v-.9h.68c5.65,0,6.33-3.62,6.33-11.09v-40c0-7.47-.45-11.09-6.33-11.09h-.68v-.9h45l1.58,19.45h-.9c-1.13-10.4-10-18.55-22.62-18.55H50.19V48h.45c8.6,0,13.57-5,13.57-13.34h.91V64.26h-.91c-.68-9.73-5.88-15.38-14-15.38H50V72.17Z"/></g></g></g></svg>