<?xml version="1.0" encoding="utf-8"?>
<!-- Generator: Adobe Illustrator 23.0.1, SVG Export Plug-In . SVG Version: 6.00 Build 0)  -->
<svg version="1.1" id="Layer_1" xmlns="http://www.w3.org/2000/svg" xmlns:xlink="http://www.w3.org/1999/xlink" x="0px" y="0px"
	 viewBox="0 0 360 120" style="enable-background:new 0 0 360 120;" xml:space="preserve">
<style type="text/css">
	.st0{fill:#FFFFFF;}
</style>
<path class="st0" d="M260.8,79.4c-1.5-2.8-2.9-4.2-4.7-4.2c-0.2,0-0.4,0-0.5,0v-0.4h14.7l0,0.4c-2,0-3,0.5-3,1.8
	c0,1,0.4,1.7,0.8,2.6l4.4,9.4l3.2-7.3c0.4-1,0.6-2.1,0.6-2.7c0-2.4-1.3-3.9-3.3-3.9c0,0-0.1,0-0.2,0v-0.4h10.6v0.4
	c-2.6,0-5.6,2.8-7.6,7.4l-2.9,6.8v8.4c0,0.5,0,0.9,0,1.1c0,2.6,0.7,3.8,2.7,3.8c0.1,0,0.3,0,0.4,0v0.4h-12.5v-0.4c0.1,0,0.2,0,0.3,0
	c2.5,0,2.8-1.6,2.8-4.9v-7.4L260.8,79.4z"/>
</svg>
