<?xml version="1.0" encoding="utf-8"?>
<!-- Generator: Adobe Illustrator 23.0.1, SVG Export Plug-In . SVG Version: 6.00 Build 0)  -->
<svg version="1.1" id="Layer_1" xmlns="http://www.w3.org/2000/svg" xmlns:xlink="http://www.w3.org/1999/xlink" x="0px" y="0px"
	 viewBox="0 0 360 120" style="enable-background:new 0 0 360 120;" xml:space="preserve">
<style type="text/css">
	.st0{fill:#FFFFFF;}
</style>
<path class="st0" d="M276.8,69.7c0.1,0,0.2,0,0.3,0c2.5,0,2.8-1.6,2.8-4.9V47.1c0-3.3-0.2-4.9-2.8-4.9c-0.1,0-0.2,0-0.3,0v-0.4h11.9
	c2.8,0,5,0,7,0.9c2.5,1.1,4,3.2,4,5.6c0,4-3.6,6.4-10.2,6.5c2.5,0.3,4.6,1.2,6.4,2.4c1.6,1.1,2.2,3,2.9,6c1.2,4.4,1,6.4,4,6.4
	c0.1,0,0.2,0,0.4,0v0.4h-9.6L292,61c-0.8-4.5-2.5-6.1-5.1-6.1c-0.2,0-0.4,0-0.7,0v9.9c0,0.5,0,0.9,0,1.1c0,2.6,0.7,3.8,2.7,3.8
	c0.1,0,0.3,0,0.4,0v0.4h-12.5V69.7z M286.8,54.5c4.5,0,6.4-1.8,6.4-6.2c0-4.6-1.5-6.1-5.8-6.1c-0.4,0-0.8,0-1.2,0v12.2
	C286.4,54.5,286.6,54.5,286.8,54.5z"/>
</svg>
