<svg xmlns="http://www.w3.org/2000/svg" viewBox="0 0 100 100"><defs><style>.cls-1{fill:none;opacity:0.2;}.cls-2{fill:#fff;}</style></defs><title>11_y</title><g id="Layer_2" data-name="Layer 2"><g id="Layer_1-2" data-name="Layer 1"><g id="_11_y" data-name="11_y"><rect class="cls-1" width="100" height="100"/><path class="cls-2" d="M30.33,28.63c-3.4-6.33-6.56-9.5-10.63-9.5H18.57v-.9H51.81v.9c-4.52,0-6.79,1.13-6.79,4.07,0,2.26.91,3.85,1.81,5.88l10,21.26L64,33.83a18.67,18.67,0,0,0,1.36-6.11c0-5.42-2.94-8.82-7.46-8.82h-.46V18h24v.9c-5.88,0-12.66,6.34-17.18,16.74L57.69,51V72.5c0,5.88,1.58,8.6,6.11,8.6h.9V82H36.43v-.9h.68c5.65,0,6.33-3.62,6.33-11.09V53.28Z"/></g></g></g></svg>