<svg xmlns="http://www.w3.org/2000/svg" viewBox="0 0 100 100"><defs><style>.cls-1{fill:none;opacity:0.2;}.cls-2{fill:#fff;}</style></defs><title>04_d</title><g id="Layer_2" data-name="Layer 2"><g id="Layer_1-2" data-name="Layer 1"><g id="_04_d" data-name="04_d"><rect class="cls-1" width="100" height="100"/><path class="cls-2" d="M20.49,80.54h.68c5.65,0,6.33-3.39,6.33-10.86v-40c0-7.69-.45-10.86-6.33-10.86h-.46V17.67h26c7.24,0,12.67.9,17.87,4.07,9,5.65,14.92,17,14.92,29a30.74,30.74,0,0,1-14,26.23c-7,4.52-14.25,4.75-22.84,4.75H20.49Zm23.74,0c14.93,0,19.45-6.11,19.45-29.85,0-22.17-5.43-32.12-17.64-32.12H41.75v62Z"/></g></g></g></svg>