<svg xmlns="http://www.w3.org/2000/svg" viewBox="0 0 13.4 11.68"><defs><style>.cls-1{fill:#fff;}</style></defs><title>snowflake-2</title><g id="Layer_2" data-name="Layer 2"><g id="snowflakes"><path class="cls-1" d="M2,9.7a.4.4,0,0,1,.3-.5l2.31-.58L6,6.24l-2.89,0L1.4,7.82s0,0-.08.07a.45.45,0,0,1-.53-.07.38.38,0,0,1,0-.58L1.87,6.18l-1.44,0A.4.4,0,0,1,0,5.76a.4.4,0,0,1,.43-.41l1.44,0L.81,4.29a.38.38,0,0,1,0-.58.44.44,0,0,1,.62,0L3.07,5.37l2.85,0L4.48,3.12l-2.33-.5a.4.4,0,0,1-.33-.49.43.43,0,0,1,.52-.31l1.53.33L3.14,1A.39.39,0,0,1,3.3.44a.45.45,0,0,1,.6.14l.72,1.15L5.06.32A.44.44,0,0,1,5.6.05a.4.4,0,0,1,.29.5L5.24,2.7,6.69,5,8,2.66,7.28.53A.44.44,0,0,1,7.57,0a.47.47,0,0,1,.55.27l.5,1.4L9.3.49A.47.47,0,0,1,9.88.33a.4.4,0,0,1,.17.55L9.36,2.05l1.52-.38a.44.44,0,0,1,.54.29.4.4,0,0,1-.19.47l-.11,0L8.81,3,7.44,5.42l2.87,0L12,3.85a.46.46,0,0,1,.63,0,.4.4,0,0,1,0,.59l-1.1,1.05L13,5.5a.4.4,0,0,1,.44.4.39.39,0,0,1-.21.36.56.56,0,0,1-.23,0l-1.43,0,1.06,1.08a.38.38,0,0,1,0,.59L12.5,8a.48.48,0,0,1-.56-.08L10.31,6.27l-2.84,0,1.45,2.3,2.33.5a.4.4,0,0,1,.33.49.43.43,0,0,1-.52.31L9.53,9.51l.72,1.15a.4.4,0,0,1-.15.57.46.46,0,0,1-.6-.15L8.77,9.93l-.43,1.38a.49.49,0,0,1-.21.24.48.48,0,0,1-.35,0,.42.42,0,0,1-.29-.51l.66-2.15L6.71,6.66,5.36,9l.76,2.13a.42.42,0,0,1-.2.5l-.08,0a.48.48,0,0,1-.55-.27L4.79,10l-.68,1.19a.33.33,0,0,1-.15.16.52.52,0,0,1-.44,0,.42.42,0,0,1-.17-.55L4,9.61,2.52,10A.45.45,0,0,1,2,9.7"/></g></g></svg>